# xmcd
#
# Track frame offsets:
#	150
#	27007
#	38052
#	45072
#	62939
#	77577
#	92283
#	115318
#	136698
#	153995
#	188489
#	200294
#
# Disc length: 2923 seconds
#
# Revision: 1
# Processed by: cddbd v1.5.2PL0 Copyright (c) Steve Scherf et al.
# Submitted via: EZCDAudioConverter 1.3.4.1
#
DISCID=800b690c
DTITLE=V/A - Far Out Spaced Oddyssey 2/2
DYEAR=2010
DGENRE=
TTITLE0=Mauricio Maestro Featuring Nana Vasconcelos - Verdade Anterior [Instru
TTITLE0=mental]
TTITLE1=Piri - Voces Querem Mate
TTITLE2=Rubens Bassini Y Los Latinos - Son Cubano Amparo
TTITLE3=Orquestra De Tambores De Alagoas - Acao Dinamica Ao Cacador
TTITLE4=Jose Mauro - Ponto De Chamada
TTITLE5=Custom Blue - You're On Your Own
TTITLE6=Victor Assis Brazil - Ao Amigo Quartin
TTITLE7=Binario - Jazzhole [Kwes Rework]
TTITLE8=Rabotnik - Las Vegas
TTITLE9=Binario - Quantao [Featuring Daz-I-Que Re-Edit]
TTITLE10=Democustico - Paz [Paul White Remix]
TTITLE11=Troubleman - Intergalactic You, Intergalactic Me
EXTD=
EXTT0=
EXTT1=
EXTT2=
EXTT3=
EXTT4=
EXTT5=
EXTT6=
EXTT7=
EXTT8=
EXTT9=
EXTT10=
EXTT11=
PLAYORDER=
